<?xml version="1.0" standalone="no"?>
<!DOCTYPE svg PUBLIC "-//W3C//DTD SVG 20010904//EN"
 "http://www.w3.org/TR/2001/REC-SVG-20010904/DTD/svg10.dtd">
<svg version="1.0" xmlns="http://www.w3.org/2000/svg"
 width="2295.000000pt" height="2295.000000pt" viewBox="0 0 2295.000000 2295.000000"
 preserveAspectRatio="xMidYMid meet">
<metadata>
Created by potrace 1.14, written by Peter Selinger 2001-2017
</metadata>
<g transform="translate(0.000000,2295.000000) scale(0.100000,-0.100000)"
fill="#000000" stroke="none">
<path d="M8349 21686 c-2 -2 -29 -7 -60 -10 -93 -10 -256 -62 -373 -120 -150
-74 -279 -168 -416 -306 -171 -170 -285 -319 -449 -583 -86 -139 -194 -328
-361 -632 -28 -51 -72 -129 -173 -305 -145 -256 -324 -499 -475 -645 -63 -62
-232 -180 -325 -227 -85 -42 -264 -110 -377 -142 -52 -15 -117 -34 -145 -41
-65 -19 -162 -43 -200 -49 -16 -3 -39 -8 -50 -10 -62 -13 -284 -59 -305 -62
-14 -2 -36 -7 -50 -9 -14 -3 -34 -7 -45 -9 -11 -2 -67 -14 -125 -25 -58 -12
-116 -23 -130 -26 -14 -3 -36 -7 -50 -10 -14 -3 -34 -7 -45 -9 -253 -52 -586
-145 -692 -192 -17 -8 -36 -14 -42 -14 -6 0 -19 -4 -29 -10 -9 -5 -64 -31
-122 -58 -219 -102 -415 -248 -538 -401 -20 -25 -40 -48 -43 -51 -15 -12 -98
-150 -124 -205 -116 -247 -168 -513 -168 -865 0 -106 10 -337 18 -399 2 -14 6
-60 10 -101 4 -41 9 -86 10 -100 3 -31 14 -124 20 -170 3 -19 7 -53 9 -75 3
-22 8 -65 12 -95 3 -30 8 -68 10 -85 9 -87 15 -132 19 -155 2 -14 7 -60 10
-103 4 -43 8 -87 10 -96 18 -96 26 -553 11 -683 -31 -279 -106 -470 -284 -727
-63 -91 -221 -289 -288 -361 -18 -19 -45 -48 -60 -65 -35 -39 -217 -235 -272
-294 -24 -25 -87 -93 -140 -151 -54 -57 -104 -111 -112 -120 -36 -39 -198
-229 -230 -270 -19 -25 -37 -47 -40 -50 -24 -21 -172 -232 -225 -321 -51 -86
-154 -305 -178 -379 -39 -116 -50 -162 -63 -260 -3 -25 -8 -54 -10 -65 -7 -32
-6 -225 1 -280 25 -201 94 -411 196 -597 22 -39 39 -72 39 -74 0 -10 170 -256
235 -339 132 -169 234 -285 516 -586 436 -465 596 -658 721 -868 115 -194 174
-375 195 -598 14 -148 6 -577 -12 -671 -2 -12 -6 -57 -10 -100 -3 -42 -7 -88
-10 -102 -2 -14 -7 -47 -10 -75 -8 -70 -15 -127 -34 -280 -20 -159 -23 -188
-35 -330 -4 -44 -9 -91 -11 -105 -21 -138 -21 -687 0 -720 2 -3 7 -35 10 -70
4 -36 8 -67 10 -71 2 -3 7 -20 10 -38 17 -97 63 -236 112 -340 34 -70 90 -169
103 -181 3 -3 24 -30 46 -60 155 -207 418 -387 756 -516 185 -70 527 -160 838
-220 14 -3 93 -18 175 -34 83 -16 168 -32 190 -37 22 -4 42 -8 45 -8 3 -1 23
-5 45 -9 102 -19 362 -81 475 -112 485 -135 735 -298 994 -647 137 -186 225
-331 511 -847 344 -619 485 -824 735 -1071 358 -351 738 -480 1220 -413 86 12
111 17 205 39 288 68 558 176 1275 512 414 194 762 314 1020 350 61 9 287 8
365 -2 89 -10 275 -56 399 -97 220 -73 407 -153 897 -381 615 -286 913 -387
1279 -432 55 -7 256 -7 290 -1 14 3 47 8 75 11 161 19 360 98 535 213 107 71
129 90 270 232 245 246 389 466 832 1270 14 25 36 65 50 90 123 221 305 502
403 619 154 184 320 316 513 408 143 68 473 172 692 218 94 20 483 97 510 101
89 14 471 97 605 133 704 185 1102 464 1295 910 37 85 82 226 95 296 27 151
34 205 40 300 11 169 6 481 -10 614 -2 14 -6 60 -10 101 -3 41 -8 86 -10 100
-3 23 -7 54 -20 170 -3 25 -7 61 -10 80 -11 87 -25 200 -30 250 -4 30 -8 66
-10 80 -2 14 -7 61 -11 105 -3 44 -8 89 -10 99 -18 97 -25 552 -11 678 19 158
44 264 96 390 102 250 318 539 722 963 42 44 89 94 104 110 27 30 207 225 235
255 13 13 79 89 168 191 57 66 190 242 252 334 148 221 260 464 296 644 3 14
7 27 9 31 2 3 7 33 10 65 4 33 9 69 11 80 8 39 4 258 -5 314 -6 31 -13 72 -16
91 -30 184 -146 444 -302 680 -90 135 -300 398 -428 536 -5 6 -55 59 -110 119
-55 59 -124 133 -154 164 -29 31 -94 101 -145 156 -50 55 -98 107 -106 115
-13 13 -80 89 -185 211 -98 114 -234 310 -301 434 -75 140 -131 328 -151 511
-14 133 -7 551 12 684 2 14 7 63 10 110 4 47 8 87 10 90 1 3 6 36 10 73 3 37
8 77 10 87 2 10 7 50 10 87 4 37 9 75 10 83 1 8 6 44 10 80 4 36 9 79 11 95 2
17 6 55 9 85 3 30 7 69 10 85 2 17 7 68 10 115 3 47 8 110 11 140 6 68 6 407
-1 475 -20 225 -58 399 -118 545 -172 419 -489 683 -1047 872 -101 34 -411
119 -480 132 -14 2 -70 14 -125 26 -55 11 -170 34 -255 50 -85 17 -166 32
-180 35 -14 3 -38 8 -55 10 -16 3 -37 8 -45 10 -8 2 -30 7 -48 10 -65 11 -180
37 -338 75 -649 159 -917 344 -1256 865 -46 71 -156 254 -201 335 -13 25 -79
143 -146 263 -66 120 -121 220 -121 222 0 1 -40 70 -88 151 -224 380 -353 556
-552 754 -191 191 -362 301 -580 374 -156 52 -214 60 -415 61 -199 0 -279 -10
-478 -60 -241 -61 -571 -190 -982 -385 -167 -79 -419 -193 -520 -235 -49 -20
-104 -44 -122 -51 -125 -55 -439 -151 -553 -169 -19 -3 -60 -9 -90 -14 -56
-10 -280 -7 -367 4 -217 28 -556 142 -928 313 -71 32 -152 69 -180 82 -27 12
-97 45 -155 72 -343 162 -724 317 -868 354 -9 2 -60 15 -112 29 -85 23 -153
36 -260 52 -43 6 -356 14 -361 9z m401 -441 c253 -49 540 -158 1055 -400 196
-92 432 -198 550 -246 66 -27 130 -54 143 -59 22 -10 16 -16 -90 -91 -201
-144 -336 -264 -748 -663 -116 -113 -267 -251 -375 -345 -16 -15 -73 -58 -125
-97 -245 -181 -406 -251 -651 -281 -122 -15 -584 -7 -699 12 -14 2 -60 7 -103
10 -43 4 -88 8 -100 10 -12 2 -49 6 -82 9 -123 12 -171 17 -200 21 -16 2 -68
7 -115 10 -47 4 -101 9 -120 11 -19 2 -122 6 -229 9 -107 3 -196 7 -198 9 -2
2 15 33 39 67 97 143 241 386 403 684 51 94 124 225 170 305 21 36 46 80 57
99 28 50 171 275 178 281 3 3 17 23 31 45 39 60 149 197 210 262 108 115 237
216 346 271 60 31 188 72 242 79 25 3 48 7 50 9 11 10 285 -6 361 -21z m5789
-1 c311 -78 566 -312 874 -802 42 -68 77 -125 77 -126 0 -2 17 -33 38 -67 21
-35 56 -95 77 -134 21 -38 60 -110 88 -160 27 -49 62 -112 77 -140 77 -143
232 -407 286 -490 l16 -24 -164 -1 c-89 0 -179 -2 -198 -4 -19 -2 -75 -7 -124
-11 -49 -4 -96 -8 -105 -10 -9 -1 -47 -6 -84 -10 -37 -3 -76 -8 -85 -10 -9 -1
-42 -6 -72 -10 -66 -8 -106 -14 -140 -20 -14 -2 -50 -7 -80 -10 -30 -3 -80
-10 -110 -15 -30 -5 -82 -12 -115 -15 -104 -11 -149 -16 -174 -20 -105 -18
-463 -24 -596 -10 -223 23 -439 116 -690 296 -164 118 -305 237 -660 559 -119
108 -208 184 -298 258 -51 40 -101 82 -113 91 -11 10 -48 37 -82 61 -34 24
-61 45 -59 46 1 1 54 21 117 44 63 23 167 64 231 91 142 59 188 79 539 242
367 170 524 238 689 297 347 124 625 158 840 104z m-3052 -930 c182 -53 456
-222 688 -425 85 -74 157 -138 225 -199 41 -37 95 -85 119 -106 24 -22 55 -50
70 -64 121 -117 417 -357 554 -450 l96 -65 -52 -13 c-87 -22 -206 -62 -337
-115 -155 -62 -162 -65 -445 -197 -331 -154 -609 -264 -724 -286 -13 -3 -54
-11 -90 -19 -67 -14 -296 -15 -371 0 -167 32 -418 125 -749 280 -75 34 -176
82 -226 105 -201 93 -528 217 -616 234 -13 2 -43 9 -65 15 -23 6 -56 13 -73
15 -18 2 -34 5 -36 7 -2 3 31 32 73 67 96 77 121 100 252 221 102 96 160 151
365 349 436 422 712 609 980 665 98 20 255 12 362 -19z m4583 -1439 c114 -8
124 -9 221 -35 97 -25 207 -75 264 -122 229 -186 350 -416 469 -893 30 -118
77 -328 90 -400 2 -11 9 -42 14 -70 73 -349 130 -577 191 -759 l39 -114 -37
15 c-164 70 -471 151 -783 208 -15 3 -74 15 -130 26 -57 11 -114 22 -128 25
-131 23 -436 103 -495 129 -16 7 -55 23 -86 35 -133 51 -250 136 -364 261 -62
69 -219 293 -258 366 -8 15 -37 66 -64 113 -27 47 -68 119 -90 160 -242 448
-395 681 -554 846 -27 29 -49 53 -49 55 0 2 17 4 38 5 50 1 250 14 287 18 17
2 59 7 95 10 36 4 76 9 90 11 14 3 45 7 70 10 58 7 111 14 185 25 33 5 83 12
110 15 28 3 61 8 75 10 14 3 48 7 75 10 28 3 61 8 75 10 25 4 96 13 180 21 25
2 95 7 155 10 61 4 111 7 112 8 3 2 118 -3 203 -9z m-8990 -149 c14 -3 63 -8
110 -11 47 -4 96 -8 110 -9 14 -2 57 -7 95 -10 39 -4 81 -9 95 -11 14 -2 52
-7 85 -10 33 -3 76 -8 95 -10 42 -5 159 -16 215 -21 22 -1 148 -6 280 -10 132
-3 241 -7 242 -8 1 -1 -23 -33 -54 -71 -115 -144 -284 -415 -446 -715 -288
-535 -470 -764 -699 -881 -56 -28 -198 -87 -228 -95 -8 -2 -73 -19 -143 -39
-71 -19 -145 -38 -165 -41 -19 -3 -46 -10 -59 -15 -13 -5 -23 -7 -23 -4 0 2
-14 0 -32 -5 -17 -5 -47 -12 -67 -15 -47 -7 -78 -13 -99 -19 -9 -3 -33 -7 -52
-10 -64 -10 -383 -77 -480 -102 -110 -28 -271 -79 -317 -100 -17 -8 -33 -14
-36 -14 -3 0 -38 -15 -79 -34 -40 -19 -74 -33 -76 -31 -2 1 9 47 23 100 15 53
29 109 31 124 3 14 11 51 19 81 7 30 16 71 19 90 3 19 8 46 11 60 12 58 82
443 101 555 3 17 11 57 19 90 7 33 16 76 19 96 8 54 71 295 96 369 139 409
329 609 659 695 61 16 80 19 201 34 64 8 482 6 530 -3z m2295 -111 c200 -24
384 -93 980 -370 44 -21 123 -56 175 -79 52 -22 96 -45 98 -49 2 -5 -23 -29
-55 -54 -94 -73 -213 -178 -346 -306 -276 -265 -321 -307 -403 -377 -194 -166
-363 -254 -530 -277 -107 -14 -472 -7 -584 11 -14 3 -61 7 -104 11 -43 4 -86
8 -95 10 -9 1 -50 6 -91 10 -41 4 -88 8 -104 10 -16 2 -90 7 -165 11 -75 3
-137 7 -139 9 -1 1 26 49 61 106 35 57 124 212 197 344 178 322 271 477 351
586 172 233 315 348 494 395 23 6 197 21 206 17 3 -1 27 -4 54 -8z m4273 1
c164 -20 326 -126 484 -316 45 -55 178 -244 178 -254 0 -3 13 -24 29 -48 15
-24 42 -68 58 -98 17 -30 40 -72 52 -93 81 -144 101 -179 101 -182 0 -2 43
-78 95 -170 52 -91 95 -169 95 -173 0 -4 -39 -8 -88 -8 -82 -1 -193 -9 -272
-19 -19 -3 -53 -7 -75 -10 -67 -7 -139 -17 -160 -21 -22 -4 -222 -30 -300 -39
-27 -3 -84 -10 -125 -15 -74 -8 -376 -7 -415 3 -24 5 -99 19 -102 18 -7 -1
-154 65 -193 87 -118 67 -327 226 -444 337 -12 11 -82 74 -156 140 -74 66
-137 123 -140 126 -3 3 -55 46 -116 95 l-111 90 86 33 c47 19 106 42 131 53
25 11 59 26 75 33 17 7 66 30 110 50 283 131 353 163 465 212 134 59 361 139
426 149 21 3 42 8 45 10 3 1 34 6 70 10 35 3 65 7 66 8 3 2 85 -2 131 -8z
m3782 -325 c75 -21 254 -65 300 -75 14 -3 34 -7 45 -9 33 -8 218 -46 245 -51
106 -20 455 -89 565 -112 11 -2 29 -6 40 -8 70 -14 295 -73 384 -100 474 -147
738 -349 859 -658 92 -234 115 -515 77 -968 -11 -137 -22 -246 -30 -300 -2
-14 -7 -50 -10 -80 -3 -30 -8 -66 -10 -80 -2 -14 -7 -54 -10 -90 -4 -36 -9
-73 -10 -82 -2 -9 -7 -48 -10 -85 -4 -37 -9 -75 -10 -84 -2 -9 -6 -52 -10 -95
-4 -43 -8 -90 -10 -102 -4 -21 -18 -208 -18 -239 0 -8 -13 -3 -31 12 -189 150
-390 273 -811 498 -331 176 -468 253 -610 345 -192 124 -346 257 -440 381
-119 157 -249 495 -320 831 -2 8 -13 60 -25 115 -12 55 -23 111 -26 125 -38
195 -131 597 -166 715 -11 39 -21 72 -21 75 0 3 -11 34 -24 69 -28 77 -28 85
-5 78 9 -3 51 -15 92 -26z m-12099 -49 c-14 -27 -77 -220 -86 -267 -2 -6 -12
-44 -23 -85 -11 -41 -23 -93 -28 -115 -4 -22 -8 -42 -9 -45 -1 -5 -6 -31 -20
-100 -10 -47 -13 -65 -30 -155 -9 -49 -19 -97 -20 -106 -2 -9 -6 -32 -9 -50
-3 -19 -16 -95 -30 -169 -14 -74 -27 -146 -30 -160 -2 -14 -7 -36 -10 -50 -3
-14 -8 -36 -10 -50 -42 -244 -147 -560 -238 -715 -133 -226 -358 -415 -793
-667 -71 -42 -146 -85 -165 -96 -19 -11 -57 -33 -85 -47 -27 -15 -58 -35 -69
-44 -10 -9 -20 -15 -22 -13 -12 8 -437 -258 -554 -347 -41 -32 -79 -60 -85
-63 -6 -4 -10 32 -11 101 -1 97 -7 201 -19 321 -18 177 -30 285 -50 445 -7 61
-16 135 -20 165 -7 66 -14 123 -20 170 -2 19 -7 64 -10 100 -4 36 -8 81 -10
100 -17 155 -22 448 -11 575 19 205 64 375 134 505 109 200 320 370 594 479
154 60 426 141 567 167 12 3 53 12 90 20 36 9 77 18 91 20 14 3 92 18 174 35
82 16 163 32 180 35 17 2 65 12 106 20 41 9 82 17 90 19 36 6 96 18 105 21 6
1 44 9 85 18 41 9 116 27 165 39 50 13 91 20 93 16 2 -5 -1 -17 -7 -27z m6118
-328 c85 -24 218 -97 333 -181 57 -42 105 -79 108 -82 3 -3 34 -31 70 -61 36
-30 67 -57 70 -60 3 -3 48 -43 100 -90 52 -47 97 -87 100 -90 28 -29 197 -173
283 -240 l108 -84 -78 -29 c-71 -27 -173 -71 -578 -252 -170 -76 -229 -98
-361 -135 -87 -24 -116 -28 -210 -25 -168 4 -290 45 -694 230 -308 141 -547
235 -600 235 -9 0 -4 9 15 24 43 34 69 58 274 255 253 243 265 253 363 337
279 234 488 309 697 248z m3481 -1072 c200 -36 327 -137 429 -339 73 -146 135
-361 202 -703 11 -58 32 -152 46 -210 13 -58 27 -116 29 -130 3 -14 16 -64 30
-112 13 -48 24 -91 24 -97 0 -6 -17 -4 -42 5 -76 26 -267 71 -508 119 -668
131 -756 188 -1030 670 -271 477 -277 487 -362 603 -37 50 -68 94 -68 96 0 2
42 7 93 11 100 7 128 10 184 19 21 3 58 8 83 11 25 4 56 8 70 10 14 2 50 7 80
10 30 4 64 9 75 11 11 2 47 7 80 10 33 4 63 8 66 10 3 1 50 6 105 10 54 3 100
8 102 9 8 7 262 -4 312 -13z m-6645 -106 c17 -2 59 -7 95 -11 36 -3 83 -8 105
-11 22 -2 65 -6 95 -9 30 -2 75 -7 100 -10 114 -12 143 -15 265 -21 71 -3 132
-7 133 -9 2 -2 -14 -27 -35 -57 -53 -72 -155 -243 -256 -428 -241 -446 -366
-588 -590 -676 -99 -39 -231 -72 -542 -135 -159 -33 -301 -62 -315 -65 -41 -8
-181 -51 -230 -69 -81 -30 -83 -30 -76 -9 8 29 55 246 60 285 3 19 7 43 9 54
6 24 34 179 41 220 27 173 92 428 135 537 103 259 255 381 521 418 54 8 427 5
485 -4z m1655 -81 c78 -11 269 -80 445 -161 94 -42 202 -91 240 -108 96 -43
113 -54 98 -63 -34 -23 -153 -132 -328 -301 -241 -233 -367 -323 -490 -351
-88 -19 -108 -21 -205 -21 -116 1 -298 13 -358 25 -9 1 -55 6 -101 10 -47 4
-94 9 -105 11 -12 2 -46 5 -78 5 l-56 2 20 36 c11 20 39 70 63 111 42 74 70
126 121 218 128 230 215 356 314 453 128 127 236 161 420 134z m3178 -9 c110
-39 224 -146 343 -324 38 -56 69 -104 69 -106 0 -2 29 -54 65 -116 36 -62 65
-114 65 -115 0 -2 25 -47 55 -100 30 -54 55 -99 55 -100 0 -1 -46 -6 -102 -10
-57 -5 -105 -9 -108 -10 -3 0 -32 -5 -65 -9 -76 -10 -123 -16 -155 -21 -14 -3
-50 -7 -80 -11 -30 -3 -66 -8 -80 -10 -14 -3 -95 -7 -180 -10 -235 -6 -330 25
-522 169 -79 59 -239 195 -273 232 -5 6 -56 50 -113 99 -56 49 -101 90 -100
92 2 1 31 14 66 28 35 15 120 53 190 85 220 102 275 127 347 155 39 16 79 32
90 36 150 61 334 81 433 46z m2786 -237 c21 -6 46 -12 55 -14 9 -2 57 -12 106
-24 50 -11 104 -22 120 -25 17 -3 64 -13 105 -21 41 -9 89 -18 105 -21 93 -17
279 -55 340 -69 39 -9 78 -18 87 -20 9 -2 52 -13 95 -25 401 -111 605 -262
688 -509 39 -114 49 -194 50 -386 0 -199 -6 -290 -41 -565 -6 -51 -11 -98 -19
-160 -3 -30 -8 -71 -10 -90 -8 -55 -13 -109 -20 -190 -4 -41 -9 -77 -11 -79
-2 -3 -17 5 -32 17 -15 12 -51 36 -81 54 -29 18 -63 40 -76 48 -57 37 -222
129 -440 245 -457 243 -633 381 -735 576 -73 141 -127 312 -191 609 -17 80
-32 154 -34 165 -10 66 -61 285 -89 382 -19 67 -28 113 -22 113 6 0 28 -5 50
-11z m-9070 -86 c-13 -43 -26 -91 -29 -108 -3 -16 -10 -46 -15 -65 -16 -59
-49 -228 -76 -380 -70 -405 -125 -616 -206 -779 -44 -90 -64 -117 -142 -195
-113 -113 -294 -241 -481 -342 -27 -14 -62 -35 -77 -45 -14 -11 -28 -19 -31
-19 -15 0 -336 -194 -449 -272 l-58 -39 -1 33 c0 18 -2 44 -4 58 -1 14 -6 68
-10 120 -4 52 -8 101 -10 110 -2 8 -6 47 -10 85 -4 39 -9 77 -10 85 -2 8 -6
44 -10 80 -4 36 -9 73 -10 82 -2 9 -7 48 -10 85 -4 37 -8 79 -11 93 -25 146
-25 618 0 658 2 4 7 23 10 43 8 51 57 168 93 220 107 155 281 259 585 350 85
25 317 80 403 95 80 13 302 57 406 79 63 14 126 27 138 30 13 2 26 7 29 10 11
11 10 3 -14 -72z m4642 -197 c54 -25 137 -74 174 -103 77 -60 161 -131 245
-207 55 -50 142 -127 192 -170 51 -43 91 -82 88 -86 -2 -4 -26 -15 -52 -25
-26 -10 -84 -35 -128 -55 -204 -95 -246 -114 -327 -145 -237 -92 -359 -79
-678 68 -41 19 -111 51 -155 72 -44 20 -120 53 -170 72 -49 20 -93 39 -98 43
-7 6 268 275 376 368 110 95 237 172 314 192 63 15 155 5 219 -24z m6894 -693
c117 -67 161 -91 400 -218 91 -48 191 -103 223 -121 32 -19 60 -34 62 -34 2 0
48 -26 102 -58 449 -266 658 -484 725 -759 39 -161 24 -368 -44 -598 -27 -92
-103 -304 -134 -371 -13 -29 -24 -55 -24 -58 0 -3 -11 -29 -24 -58 -13 -29
-48 -109 -79 -178 -30 -69 -67 -152 -81 -185 -15 -33 -31 -69 -36 -80 -100
-225 -172 -417 -244 -649 l-12 -38 -38 62 c-75 122 -204 285 -371 470 -27 30
-59 64 -70 76 -11 11 -49 51 -84 90 -36 38 -92 98 -126 134 -304 325 -472 571
-510 748 -3 12 -7 32 -10 45 -3 12 -8 42 -11 67 -3 25 -7 56 -10 70 -4 33 -4
315 1 360 2 19 6 71 9 116 4 45 8 91 11 102 2 12 6 47 10 79 5 57 11 104 20
173 3 19 7 55 10 80 3 25 7 61 10 80 3 19 7 67 11 105 3 39 8 84 11 100 11 72
10 475 -1 556 l-12 86 105 -67 c58 -37 153 -94 211 -127z m-13625 -135 c0
-184 6 -312 20 -423 2 -22 12 -101 20 -175 9 -74 18 -146 20 -160 2 -14 7 -54
10 -90 4 -36 8 -72 10 -80 19 -106 28 -542 12 -650 -30 -209 -142 -421 -348
-655 -47 -54 -133 -150 -143 -161 -6 -6 -63 -66 -126 -134 -63 -68 -138 -149
-167 -180 -86 -92 -110 -120 -213 -246 -132 -163 -191 -252 -272 -407 l-16
-32 -15 35 c-8 19 -33 78 -55 130 -55 131 -136 307 -227 490 -80 161 -137 279
-187 389 -63 140 -84 190 -93 221 -4 14 -11 30 -15 35 -4 6 -24 62 -44 125
-31 101 -49 169 -71 275 -12 55 -14 269 -4 325 68 361 360 646 1064 1040 370
207 647 380 788 492 27 21 50 38 50 38 1 0 2 -91 2 -202z m9235 58 c175 -26
272 -131 349 -381 28 -91 56 -200 67 -265 3 -14 21 -99 41 -190 20 -91 38
-175 41 -188 4 -21 2 -22 -19 -13 -19 9 -247 57 -359 77 -144 26 -319 80 -384
118 -85 51 -187 180 -288 366 -81 149 -104 190 -165 288 -35 57 -64 108 -66
114 -2 11 2 13 88 22 33 3 71 8 85 10 14 2 47 7 73 11 27 4 56 8 65 10 125 24
376 35 472 21z m-4865 -80 c17 -3 62 -7 100 -11 39 -3 81 -8 95 -10 33 -6 140
-15 213 -20 32 -1 60 -5 63 -7 2 -3 -9 -24 -24 -49 -16 -24 -75 -128 -132
-229 -195 -350 -260 -423 -426 -480 -76 -27 -236 -66 -346 -85 -101 -18 -304
-65 -348 -80 -36 -13 -43 -12 -42 5 1 14 13 85 21 122 5 24 12 61 15 83 4 23
9 52 11 65 3 14 8 39 10 55 12 69 45 214 55 239 5 14 7 26 5 26 -7 0 39 119
69 178 81 159 209 213 496 206 74 -2 149 -6 165 -8z m1280 -78 c69 -21 274
-107 367 -154 l47 -24 -51 -47 c-28 -27 -95 -90 -148 -140 -113 -109 -197
-176 -261 -208 -49 -25 -147 -42 -219 -39 -122 6 -216 15 -347 32 l-51 7 70
125 c38 69 78 139 87 155 92 166 193 275 281 305 62 21 130 17 225 -12z m2294
-5 c47 -27 95 -73 139 -132 15 -20 29 -38 32 -41 3 -3 10 -14 17 -25 36 -59
104 -177 133 -230 18 -33 37 -65 42 -72 9 -11 -13 -17 -102 -27 -73 -9 -144
-18 -163 -22 -122 -23 -316 -23 -387 0 -52 17 -155 78 -210 126 -135 115 -240
211 -240 219 0 4 19 15 43 26 23 10 80 36 127 58 198 93 303 132 385 144 22 3
41 6 43 8 11 10 105 -12 141 -32z m2171 -193 c36 -6 74 -14 85 -16 16 -3 292
-58 345 -69 60 -12 190 -46 215 -55 17 -7 39 -14 50 -16 11 -2 61 -23 110 -47
144 -70 221 -153 261 -282 27 -86 37 -297 21 -445 -4 -36 -9 -87 -12 -115 -3
-27 -8 -68 -10 -90 -3 -22 -8 -58 -11 -80 -2 -22 -7 -56 -10 -75 -2 -19 -7
-57 -10 -84 -2 -28 -6 -51 -8 -53 -1 -2 -31 15 -65 37 -34 22 -64 40 -66 40
-2 0 -30 15 -62 34 -32 18 -107 59 -168 91 -389 204 -499 296 -577 481 -22 52
-62 178 -73 232 -11 56 -60 276 -85 387 -36 153 -36 159 -12 147 9 -5 46 -15
82 -22z m-6909 -98 c-11 -48 -30 -139 -41 -202 -69 -388 -95 -492 -155 -615
-65 -136 -148 -211 -399 -360 -311 -183 -401 -235 -410 -235 -5 0 -10 10 -11
22 -13 130 -17 170 -20 190 -2 13 -6 46 -9 73 -15 133 -18 162 -22 185 -9 61
-18 204 -18 300 0 293 65 421 271 528 76 40 254 99 363 121 30 6 66 14 80 17
43 9 274 53 307 59 17 3 42 9 55 14 14 5 24 5 26 -1 2 -5 -5 -48 -17 -96z
m3518 -87 c59 -31 214 -155 346 -278 22 -20 43 -37 48 -37 4 0 7 -5 7 -10 0
-10 -23 -21 -210 -104 -179 -80 -265 -91 -378 -50 -43 15 -381 163 -392 171
-2 2 36 43 85 91 261 253 350 292 494 217z m4950 -439 c58 -37 203 -117 449
-247 42 -23 91 -49 107 -59 17 -10 50 -29 75 -42 201 -111 388 -259 460 -364
113 -163 128 -325 53 -589 -25 -88 -31 -106 -89 -250 -29 -75 -127 -300 -175
-403 -25 -56 -146 -356 -163 -406 -5 -16 -11 -12 -38 25 -32 46 -157 198 -193
235 -20 21 -199 213 -263 283 -227 245 -320 404 -339 581 -11 103 -5 361 11
447 2 10 7 49 11 86 3 37 8 76 10 85 1 9 6 49 10 87 4 39 9 79 11 90 9 45 18
228 18 343 0 67 1 122 3 122 2 0 21 -11 42 -24z m-9978 -83 c0 -5 2 -48 4 -98
2 -84 12 -208 20 -265 2 -14 7 -53 10 -87 4 -35 8 -73 9 -85 2 -13 7 -50 11
-83 3 -33 8 -70 10 -83 24 -151 24 -419 1 -531 -16 -73 -75 -190 -149 -289
-59 -81 -125 -156 -327 -373 -151 -161 -138 -147 -195 -215 -60 -71 -119 -149
-168 -223 l-36 -55 -32 70 c-36 79 -91 195 -212 444 -109 226 -172 384 -207
523 -37 144 -38 305 -2 402 77 208 266 369 772 660 219 125 357 209 430 261
47 34 59 39 61 27z m6895 -42 c43 -12 100 -64 127 -118 35 -67 87 -257 113
-413 5 -24 8 -40 21 -84 3 -11 1 -16 -5 -12 -5 3 -27 8 -48 12 -22 3 -55 9
-74 14 -19 5 -55 12 -79 15 -71 10 -213 54 -256 80 -62 36 -95 81 -205 275
-45 80 -91 159 -101 175 -17 30 -17 31 0 32 10 1 54 7 97 13 43 6 108 14 144
17 36 3 66 7 68 8 8 7 162 -4 198 -14z m-3556 -56 c22 -5 145 -17 178 -18 19
-1 16 -9 -43 -112 -30 -54 -55 -100 -55 -102 0 -15 -108 -163 -138 -191 -50
-44 -175 -88 -307 -109 -16 -2 -46 -8 -65 -13 -19 -5 -53 -11 -76 -15 -22 -3
-56 -10 -75 -15 -19 -6 -34 -10 -35 -10 -1 0 3 21 8 48 5 26 11 63 14 82 24
158 77 324 123 389 21 29 73 59 126 72 32 7 304 3 345 -6z m902 -61 c40 -15
120 -49 177 -75 57 -27 105 -49 107 -49 2 0 27 -11 56 -24 129 -60 270 -94
388 -94 151 0 249 29 515 151 190 87 246 108 312 114 57 5 66 3 101 -20 21
-15 54 -48 73 -74 32 -43 139 -218 139 -227 0 -12 126 -216 164 -265 144 -187
330 -278 686 -336 19 -3 42 -8 50 -10 8 -2 30 -7 47 -10 72 -12 190 -56 221
-82 49 -42 62 -89 57 -218 -2 -60 -7 -128 -11 -150 -15 -88 -30 -274 -28 -350
5 -249 66 -378 299 -631 122 -132 131 -142 177 -199 48 -58 88 -139 88 -176 0
-63 -93 -195 -266 -375 -218 -228 -293 -383 -297 -614 -1 -95 7 -235 18 -300
14 -88 17 -116 20 -213 6 -184 -17 -223 -159 -271 -48 -16 -158 -42 -221 -52
-94 -16 -292 -66 -363 -94 -185 -71 -315 -200 -448 -445 -141 -262 -233 -384
-291 -386 -78 -4 -152 18 -311 93 -57 26 -105 48 -107 48 -3 0 -28 11 -58 24
-295 135 -517 137 -805 5 -35 -16 -65 -29 -67 -29 -3 0 -42 -18 -87 -41 -113
-55 -270 -107 -310 -103 -81 10 -137 77 -288 344 -106 188 -142 241 -220 324
-118 125 -249 185 -528 241 -296 60 -381 87 -424 133 -15 15 -31 44 -37 66 -9
35 -7 232 3 282 11 55 28 225 30 310 5 184 -23 299 -105 436 -27 45 -53 85
-57 88 -4 3 -29 32 -57 65 -27 32 -61 71 -75 85 -202 212 -270 309 -270 385 0
58 81 175 224 325 273 286 340 423 340 695 -1 79 -13 255 -20 266 -7 13 -18
163 -18 254 0 67 5 110 15 130 18 37 79 79 144 99 58 19 42 15 265 61 387 79
523 155 677 381 28 42 173 293 173 300 0 7 51 84 93 141 74 99 136 115 269 67z
m3459 -174 c271 -53 406 -102 478 -172 29 -28 58 -78 66 -113 21 -101 21 -224
0 -405 -2 -19 -7 -64 -11 -100 -4 -36 -8 -67 -10 -69 -5 -5 -35 10 -144 69
-41 23 -97 53 -125 68 -77 41 -206 126 -241 159 -65 61 -104 147 -145 318 -12
50 -23 104 -26 120 -2 17 -11 56 -19 88 -18 75 -18 80 4 72 11 -3 88 -19 173
-35z m-5347 -37 c-7 -32 -15 -71 -17 -88 -3 -16 -15 -82 -27 -145 -52 -279
-92 -354 -243 -457 -63 -44 -331 -203 -340 -203 -2 0 -4 6 -4 13 -2 27 -13
124 -18 147 -3 14 -8 54 -11 90 -3 36 -7 76 -9 90 -8 43 -7 203 0 255 10 65
39 127 79 166 64 64 266 136 466 166 19 3 43 8 53 12 10 4 33 8 51 9 l33 2
-13 -57z m11526 -466 c36 -45 77 -95 91 -112 77 -89 211 -238 265 -295 35 -36
72 -76 84 -90 12 -14 51 -57 88 -95 123 -130 281 -303 353 -388 13 -16 37 -43
52 -60 53 -60 197 -255 253 -344 112 -177 189 -367 214 -524 12 -75 9 -247 -5
-319 -46 -233 -232 -562 -477 -846 -148 -171 -264 -298 -462 -506 -130 -138
-242 -262 -344 -382 l-67 -78 -9 33 c-57 212 -162 476 -318 799 -141 290 -213
441 -232 482 -9 20 -34 75 -56 122 -38 84 -119 294 -125 328 -2 9 -11 43 -19
75 -63 228 -55 450 24 718 11 39 22 77 24 85 16 58 133 358 187 475 197 435
323 740 376 912 15 51 30 93 33 92 3 0 34 -37 70 -82z m-5155 33 c6 -4 60 -33
120 -65 335 -177 435 -241 534 -344 153 -161 132 -352 -95 -839 -19 -41 -34
-76 -34 -79 0 -2 -11 -28 -23 -56 -13 -29 -32 -74 -42 -100 l-18 -48 -21 23
c-12 13 -31 36 -43 51 -18 23 -156 174 -277 301 -55 59 -142 183 -165 235 -12
29 -26 76 -31 105 -8 51 -5 266 4 322 3 16 10 70 16 119 6 50 12 106 15 125 8
65 17 184 17 226 0 43 9 48 43 24z m-7460 -135 c3 -44 8 -91 10 -105 2 -14 6
-54 10 -90 3 -36 8 -72 10 -80 16 -67 25 -348 13 -420 -9 -60 -50 -140 -109
-219 -59 -79 -64 -84 -216 -248 -124 -133 -163 -178 -231 -265 l-28 -36 -89
181 c-239 493 -270 655 -159 823 79 119 216 216 671 475 18 10 49 29 70 42 21
14 39 24 39 23 1 0 5 -37 9 -81z m-5210 -90 c38 -125 105 -305 156 -413 16
-35 29 -65 29 -67 0 -4 97 -207 237 -495 84 -173 134 -280 183 -395 5 -11 23
-58 41 -105 17 -47 36 -94 40 -105 14 -33 48 -175 63 -261 35 -199 4 -421 -99
-723 -50 -144 -137 -359 -207 -511 -17 -36 -34 -74 -39 -85 -4 -11 -22 -51
-39 -90 -17 -38 -56 -128 -87 -200 -30 -71 -61 -143 -68 -160 -22 -50 -104
-282 -117 -330 -7 -25 -15 -44 -19 -43 -3 2 -48 55 -100 118 -51 63 -96 117
-99 120 -4 3 -40 43 -81 90 -41 46 -87 99 -104 116 -40 41 -244 260 -273 293
-13 14 -47 51 -76 81 -28 30 -88 96 -131 145 -44 50 -83 92 -86 95 -3 3 -47
57 -98 120 -230 285 -390 587 -417 787 -3 26 -8 51 -11 55 -2 5 -4 50 -4 100
1 168 44 333 135 511 68 134 184 310 277 422 10 11 43 52 74 90 54 67 134 157
255 288 65 71 79 86 231 248 179 190 193 206 297 326 53 62 98 109 99 105 1
-4 19 -61 38 -127z m15531 -490 c37 -44 89 -102 114 -129 60 -66 166 -180 210
-226 56 -59 194 -211 231 -255 19 -22 37 -42 40 -45 3 -3 42 -53 86 -112 96
-128 163 -241 203 -343 41 -108 50 -152 51 -250 1 -180 -68 -349 -239 -583
-46 -65 -87 -119 -91 -122 -3 -3 -21 -23 -40 -45 -39 -46 -167 -188 -226 -250
-59 -61 -149 -158 -245 -263 -46 -51 -88 -92 -92 -92 -4 0 -8 8 -8 18 0 47
-122 333 -260 612 -132 266 -202 427 -245 562 -37 116 -40 139 -39 283 1 215
36 323 307 940 41 94 94 221 118 283 23 61 46 109 50 105 3 -5 37 -44 75 -88z
m-3738 43 c86 -47 171 -95 188 -106 6 -4 30 -20 53 -35 53 -35 107 -90 128
-131 38 -72 13 -194 -84 -415 -30 -69 -62 -143 -71 -163 -9 -21 -19 -38 -22
-38 -4 0 -48 45 -98 99 -195 210 -223 257 -226 378 -1 43 4 125 11 183 13 108
26 236 26 258 0 19 13 15 95 -30z m-5654 -63 c3 -27 8 -68 11 -90 29 -217 26
-317 -10 -391 -15 -30 -32 -60 -38 -67 -7 -6 -25 -28 -41 -47 -16 -19 -73 -82
-126 -140 -54 -58 -107 -116 -117 -129 l-19 -23 -63 133 c-183 384 -164 469
142 657 127 78 251 151 253 149 1 -1 4 -24 8 -52z m-3788 -150 c20 -55 51
-131 69 -170 71 -152 116 -247 192 -405 69 -141 93 -195 154 -335 17 -40 70
-210 76 -245 21 -131 18 -230 -13 -365 -18 -84 -77 -259 -110 -331 -13 -29
-24 -55 -24 -58 0 -6 -14 -39 -67 -155 -59 -132 -183 -424 -213 -504 -26 -69
-36 -85 -45 -75 -6 7 -40 47 -76 88 -35 41 -68 80 -74 86 -80 87 -196 212
-242 260 -497 522 -656 814 -607 1122 23 142 133 352 286 543 85 107 145 173
325 366 105 112 148 158 261 283 23 25 42 50 42 55 1 12 15 -22 66 -160z
m11568 -419 c56 -59 115 -123 131 -140 243 -258 361 -457 369 -619 8 -166
-101 -363 -349 -632 -181 -196 -260 -275 -263 -263 -12 39 -92 219 -173 385
-187 386 -221 506 -193 666 20 116 59 226 171 482 58 132 111 256 120 275 l14
35 36 -40 c20 -22 82 -89 137 -149z m-9744 -241 c142 -293 177 -376 206 -488
44 -170 2 -344 -181 -742 -17 -38 -49 -113 -70 -165 -21 -52 -40 -97 -43 -100
-2 -3 -20 13 -40 35 -34 39 -231 251 -282 305 -14 14 -50 55 -80 91 -30 35
-57 66 -60 69 -7 6 -100 136 -118 165 -30 47 -73 149 -86 203 -45 194 61 411
354 722 14 14 74 79 134 143 l109 117 37 -93 c21 -50 75 -168 120 -262z m8475
-100 c186 -202 259 -323 261 -431 2 -119 -87 -260 -309 -492 l-60 -63 -60 123
c-232 482 -232 482 -69 860 l76 177 44 -47 c24 -26 77 -83 117 -127z m-7223
-175 c106 -221 122 -299 89 -430 -17 -69 -121 -329 -166 -417 l-12 -22 -23 27
c-13 15 -55 61 -94 102 -159 169 -224 253 -272 355 -27 59 -32 80 -30 131 4
112 81 236 271 440 l98 105 44 -93 c25 -51 68 -140 95 -198z m6732 -995 c37
-92 45 -120 52 -180 16 -139 -56 -218 -368 -400 -79 -46 -144 -83 -145 -82 -1
1 -4 29 -8 62 -3 33 -8 69 -10 80 -9 45 -19 175 -18 252 1 128 26 170 247 406
56 60 105 116 110 125 7 13 21 -7 61 -88 28 -58 64 -136 79 -175z m1097 58
c160 -330 211 -476 212 -608 2 -205 -119 -327 -598 -601 -66 -37 -147 -85
-180 -106 -32 -20 -60 -36 -61 -35 -1 1 -5 36 -8 77 -6 69 -20 193 -31 280
-14 111 -17 146 -20 252 -1 64 1 138 6 165 21 114 104 234 333 476 117 126
236 265 236 279 0 4 4 8 10 8 5 0 51 -84 101 -187z m1463 125 c28 -62 93 -200
204 -428 155 -322 222 -502 247 -665 7 -50 7 -170 0 -209 -41 -210 -219 -398
-590 -623 -26 -15 -319 -185 -366 -211 -66 -37 -254 -154 -287 -180 -18 -14
-35 -22 -38 -20 -3 3 -7 50 -9 104 -5 123 -14 224 -30 349 -2 17 -9 75 -15
130 -6 55 -13 111 -15 125 -17 99 -23 356 -12 455 22 185 115 334 390 630 194
207 223 239 258 280 19 22 39 46 46 53 22 24 150 197 169 230 10 17 20 32 22
32 2 0 14 -24 26 -52z m2080 0 c10 -29 43 -109 74 -178 53 -120 97 -214 287
-605 159 -328 274 -622 301 -770 3 -16 12 -64 19 -105 19 -104 13 -306 -13
-385 -69 -216 -188 -376 -417 -560 -67 -54 -317 -224 -380 -259 -16 -9 -63
-37 -103 -61 -41 -25 -76 -45 -79 -45 -3 0 -17 -8 -31 -18 -15 -11 -52 -33
-82 -49 -30 -17 -84 -47 -120 -68 -36 -21 -85 -49 -110 -63 -108 -61 -314
-192 -418 -266 -62 -45 -121 -86 -130 -93 -16 -11 -17 2 -17 190 0 179 -9 359
-21 420 -2 12 -6 50 -9 86 -3 36 -7 77 -10 91 -2 14 -6 50 -10 80 -3 30 -8 66
-10 80 -2 14 -7 54 -11 90 -3 36 -7 72 -9 80 -1 8 -6 55 -10 103 -4 49 -9 100
-11 115 -6 48 -5 305 1 372 17 165 72 320 167 467 46 71 189 252 255 324 21
23 49 53 62 68 13 14 79 85 145 156 67 72 144 155 172 185 27 30 52 57 55 60
5 4 117 134 168 195 74 89 241 346 257 397 9 29 18 21 38 -34z m-10859 -65
c120 -128 184 -209 207 -260 21 -47 28 -160 17 -255 -4 -35 -10 -88 -13 -118
-4 -30 -8 -65 -10 -76 -2 -12 -5 -43 -7 -70 -3 -58 -7 -68 -22 -56 -7 5 -39
24 -72 42 -52 29 -88 48 -170 94 -89 50 -173 124 -199 175 -31 59 -24 151 19
268 37 100 148 353 154 353 3 0 47 -44 96 -97z m-1165 2 c23 -27 91 -102 150
-165 238 -256 301 -346 328 -466 9 -41 8 -275 -1 -329 -3 -16 -9 -59 -12 -95
-4 -36 -9 -72 -10 -81 -2 -9 -6 -52 -10 -95 -4 -43 -9 -88 -11 -99 -2 -11 -4
-50 -5 -87 -1 -38 -3 -68 -6 -68 -2 0 -27 13 -56 28 -29 16 -86 47 -127 69
-239 129 -282 153 -373 215 -85 58 -181 157 -207 214 -26 57 -35 174 -19 244
6 25 13 55 15 68 9 48 76 218 178 449 58 134 106 248 106 255 0 14 1 13 60
-57z m-1434 -161 c57 -67 82 -95 179 -199 26 -27 86 -93 133 -145 48 -52 97
-106 110 -120 13 -14 50 -60 82 -102 147 -194 185 -305 184 -538 0 -82 -11
-260 -18 -297 -3 -16 -15 -118 -21 -178 -3 -30 -16 -137 -20 -161 -11 -70 -19
-217 -19 -336 0 -76 -1 -138 -2 -138 -1 0 -57 31 -123 70 -67 39 -124 70 -126
70 -2 0 -30 15 -62 33 -32 19 -107 60 -168 92 -453 238 -655 405 -727 603 -33
89 -31 263 5 405 23 93 77 248 123 352 7 17 56 128 109 248 52 120 107 248
122 285 14 37 30 72 34 77 4 6 10 22 13 35 2 14 11 41 19 60 8 19 17 43 21 54
5 15 14 8 50 -42 24 -33 70 -91 102 -128z m-2180 95 c40 -66 167 -241 213
-293 16 -17 64 -71 107 -121 43 -49 104 -117 136 -150 31 -33 78 -83 105 -111
297 -316 431 -483 517 -644 64 -122 87 -199 111 -373 5 -35 5 -320 0 -377 -6
-73 -16 -176 -20 -210 -2 -19 -7 -57 -10 -85 -8 -70 -15 -124 -20 -165 -5 -34
-8 -60 -20 -165 -3 -27 -7 -65 -10 -83 -27 -216 -26 -710 1 -754 4 -5 -11 2
-32 16 -61 40 -313 190 -379 226 -33 18 -82 45 -110 60 -27 15 -99 53 -160 85
-618 325 -892 522 -1037 744 -65 99 -84 142 -109 248 -47 194 -22 415 78 703
24 69 45 130 47 135 4 12 9 25 56 140 30 72 149 346 305 700 7 17 25 62 40
100 15 39 31 79 36 90 24 53 105 305 108 338 2 15 11 5 47 -54z m11009 -1014
c3 -33 8 -71 10 -85 15 -102 28 -256 27 -325 -3 -181 -43 -263 -162 -331 -56
-32 -217 -80 -360 -108 -14 -2 -57 -11 -96 -19 l-71 -13 8 30 c4 17 10 49 13
71 20 136 77 386 104 455 31 78 113 163 216 225 220 131 292 171 298 166 3 -3
9 -33 13 -66z m-6355 -73 c156 -81 276 -154 335 -202 93 -76 135 -182 204
-514 12 -55 20 -100 19 -102 -5 -4 -340 65 -418 87 -98 26 -206 79 -248 119
-40 39 -67 98 -77 166 -11 82 -7 238 10 349 7 48 18 149 19 167 0 16 3 16 31
-1 16 -11 73 -41 125 -69z m7576 -354 c3 -41 8 -84 20 -173 3 -22 7 -60 9 -85
2 -25 6 -61 9 -80 27 -170 38 -429 23 -550 -9 -74 -39 -159 -77 -217 -95 -144
-327 -239 -780 -319 -14 -3 -75 -15 -136 -27 l-111 -23 13 51 c8 27 16 62 19
78 3 15 12 58 20 95 7 37 23 121 34 187 30 171 30 170 57 280 81 324 152 403
589 654 88 51 192 112 230 136 39 24 72 41 74 39 2 -2 5 -23 7 -46z m-8875
-86 c60 -36 166 -95 384 -212 154 -82 278 -166 347 -233 116 -113 166 -240
253 -655 20 -92 44 -199 54 -238 l18 -70 -81 18 c-44 10 -97 21 -116 24 -19 3
-51 9 -70 14 -19 5 -51 11 -70 14 -120 19 -314 64 -420 98 -268 85 -385 193
-431 396 -19 86 -16 331 5 497 3 17 7 57 11 90 3 33 7 69 9 80 2 11 7 54 11
95 4 41 9 82 11 90 1 8 3 21 3 28 1 7 4 11 9 9 4 -3 37 -23 73 -45z m6644 -4
c-2 -7 -13 -67 -25 -133 -12 -66 -28 -144 -37 -174 -8 -29 -16 -59 -17 -65 -1
-6 -10 -28 -19 -50 -9 -21 -17 -42 -17 -46 0 -4 -18 -26 -39 -48 -54 -55 -98
-67 -256 -67 -118 0 -176 4 -315 21 -25 3 -53 6 -62 6 -10 -1 -18 3 -18 7 0
11 121 228 165 296 75 118 161 169 338 200 15 3 59 12 97 20 38 8 82 17 97 20
16 3 44 9 63 14 49 12 50 12 45 -1z m-4369 -18 c27 -5 59 -11 70 -14 12 -2 39
-7 59 -10 65 -11 198 -47 241 -65 22 -10 57 -34 76 -54 33 -33 98 -121 98
-133 0 -3 8 -18 18 -32 11 -15 36 -58 57 -97 21 -38 51 -94 68 -123 16 -29 28
-55 26 -57 -2 -2 -29 -6 -59 -10 -30 -3 -66 -8 -80 -10 -148 -22 -299 -26
-361 -11 -120 31 -171 133 -249 499 -15 70 -24 127 -20 127 4 0 29 -4 56 -10z
m8269 -526 c4 -74 10 -139 20 -224 2 -19 7 -63 10 -98 4 -35 8 -72 10 -82 2
-10 7 -50 10 -87 4 -37 9 -75 10 -83 2 -8 6 -46 10 -85 4 -38 9 -77 10 -86 18
-99 27 -481 13 -584 -43 -336 -220 -529 -601 -657 -50 -16 -97 -31 -106 -33
-9 -2 -43 -11 -76 -20 -33 -9 -67 -18 -75 -20 -12 -3 -379 -78 -445 -91 -11
-2 -56 -11 -100 -19 -44 -9 -122 -25 -173 -36 -51 -12 -96 -19 -98 -16 -3 3 4
36 15 74 19 64 67 264 77 323 3 14 11 59 19 100 15 75 19 100 31 175 3 22 15
83 25 135 11 52 22 111 25 130 17 108 97 366 141 455 107 212 234 313 848 668
110 64 243 145 295 180 52 35 96 63 98 62 1 -1 4 -37 7 -81z m-12218 -89 c35
-25 67 -45 70 -45 4 0 14 -6 22 -14 23 -20 250 -149 416 -236 77 -40 156 -82
175 -93 19 -11 55 -31 80 -45 25 -14 81 -48 125 -75 328 -207 436 -360 540
-764 19 -73 37 -145 40 -160 9 -49 14 -74 19 -91 3 -9 8 -33 11 -52 3 -19 8
-42 10 -50 2 -8 7 -31 10 -50 3 -19 11 -55 16 -80 6 -25 12 -52 14 -61 10 -48
57 -233 74 -292 11 -37 16 -65 10 -62 -5 4 -17 8 -27 10 -9 1 -35 8 -57 13
-22 6 -51 13 -65 16 -134 28 -525 107 -547 111 -15 2 -37 7 -48 9 -11 2 -56
11 -100 20 -415 85 -686 213 -817 386 -77 102 -115 207 -138 380 -8 60 -5 414
4 470 2 14 7 57 10 95 7 76 15 145 21 185 2 14 9 70 15 125 6 55 13 111 15
125 3 14 8 59 11 100 4 41 8 82 10 90 1 8 3 30 3 48 1 17 4 32 7 32 3 0 35
-20 71 -45z m9213 -82 c-5 -21 -11 -50 -14 -66 -8 -44 -27 -150 -31 -176 -2
-14 -9 -47 -14 -75 -6 -28 -13 -62 -15 -76 -24 -137 -80 -304 -129 -382 -55
-92 -149 -149 -270 -165 -67 -9 -261 -9 -358 0 -42 4 -103 10 -135 13 -33 3
-70 7 -84 9 -36 6 -188 19 -236 19 l-40 1 46 75 c25 41 79 136 120 210 134
247 226 372 314 427 70 45 256 103 406 128 19 3 46 8 60 10 14 3 34 7 45 9 80
15 181 38 240 55 103 28 104 28 95 -16z m-3015 1 c28 -9 123 -50 212 -90 90
-41 167 -74 173 -74 21 0 7 -19 -74 -98 -184 -181 -293 -252 -383 -252 -89 1
-162 48 -381 243 -150 135 -148 120 -27 174 39 17 93 41 120 54 150 68 249 80
360 43z m-3057 -13 c51 -12 109 -24 129 -27 19 -3 43 -7 52 -9 186 -38 240
-51 314 -76 192 -63 260 -134 432 -444 100 -182 195 -342 217 -365 17 -18 17
-19 -15 -24 -42 -7 -103 -16 -152 -21 -22 -3 -51 -7 -65 -10 -14 -2 -47 -7
-75 -10 -27 -3 -61 -7 -74 -10 -53 -10 -202 -19 -300 -18 -285 4 -393 125
-497 558 -14 61 -30 133 -35 160 -7 42 -29 145 -44 205 -30 127 -30 123 -2
117 12 -2 64 -14 115 -26z m4327 -246 c79 -6 164 -14 236 -24 l48 -6 -81 -145
c-226 -407 -322 -487 -528 -442 -77 17 -200 63 -325 122 -49 23 -100 46 -112
51 -13 5 -23 12 -23 17 0 10 268 265 342 325 87 69 146 96 231 105 39 4 88 6
107 5 19 -1 67 -5 105 -8z m-2380 -50 c41 -14 186 -102 205 -124 3 -3 58 -53
123 -110 64 -56 117 -106 117 -110 0 -7 -63 -38 -210 -104 -30 -13 -75 -34
-100 -45 -121 -55 -258 -90 -333 -85 -129 8 -242 131 -417 456 -23 43 -40 80
-37 83 6 6 37 11 112 19 33 3 72 8 88 10 63 11 86 14 162 20 44 4 81 8 83 10
10 8 167 -7 207 -20z m9391 -353 c2 -132 13 -290 29 -412 2 -19 7 -66 10 -105
3 -38 8 -77 10 -85 2 -8 6 -44 10 -80 4 -36 8 -76 10 -90 2 -14 6 -52 10 -85
4 -33 9 -69 11 -80 2 -11 7 -45 10 -75 6 -60 8 -76 18 -195 4 -44 9 -91 11
-103 22 -139 21 -546 -1 -678 -53 -322 -162 -519 -379 -689 -113 -88 -362
-207 -545 -260 -56 -16 -240 -66 -260 -70 -204 -46 -630 -133 -730 -150 -19
-3 -42 -8 -50 -10 -8 -2 -28 -7 -45 -10 -16 -3 -43 -8 -60 -11 -43 -8 -185
-40 -298 -68 -61 -14 -97 -19 -94 -12 10 27 89 272 92 286 2 8 14 60 28 115
22 88 56 242 71 330 3 17 7 39 10 50 2 11 9 52 15 90 13 73 26 144 61 335 57
303 116 528 185 700 102 254 204 381 475 593 87 68 306 202 765 467 229 132
456 277 570 364 33 25 60 46 60 46 0 0 1 -48 1 -108z m-16581 -233 c79 -54
204 -131 298 -183 26 -14 66 -37 90 -50 71 -39 148 -81 252 -136 751 -397 987
-587 1141 -915 73 -157 160 -435 208 -665 8 -41 25 -118 36 -170 11 -52 29
-138 40 -190 44 -213 62 -292 99 -435 22 -82 54 -192 71 -243 17 -52 29 -96
27 -99 -3 -2 -36 5 -74 16 -175 51 -592 144 -838 185 -222 38 -587 123 -777
180 -431 131 -709 331 -832 599 -23 50 -76 197 -71 197 2 0 0 14 -5 32 -5 17
-12 47 -15 67 -3 20 -7 46 -9 58 -27 139 -23 521 9 783 2 19 7 67 11 105 3 39
8 78 9 87 2 9 7 48 10 85 4 37 9 77 11 88 3 16 21 162 38 320 3 22 8 65 11 95
4 30 8 82 11 115 2 33 6 80 9 105 2 25 4 67 4 93 l1 48 78 -59 c42 -32 113
-83 157 -113z m12551 3 c-16 -49 -93 -442 -111 -567 -4 -22 -8 -47 -10 -55 -3
-8 -7 -33 -11 -55 -12 -80 -77 -322 -107 -400 -150 -391 -390 -492 -1027 -430
-134 13 -167 16 -195 20 -16 2 -57 6 -90 10 -33 3 -78 7 -100 10 -73 9 -158
15 -274 20 -63 3 -116 7 -119 9 -2 3 9 22 25 43 50 65 125 189 253 418 264
472 346 576 530 666 111 55 347 122 540 154 135 22 429 88 525 118 39 12 72
22 75 22 8 2 43 16 65 25 31 13 37 12 31 -8z m-8456 -72 c93 -24 303 -68 460
-97 14 -2 45 -9 70 -15 25 -5 59 -12 75 -15 70 -12 266 -78 343 -115 100 -49
200 -142 290 -271 34 -48 62 -89 62 -92 0 -3 17 -33 38 -67 21 -35 78 -135
127 -223 149 -271 262 -450 334 -527 l25 -28 -35 -1 c-61 -1 -211 -15 -263
-25 -10 -2 -44 -6 -75 -9 -31 -4 -63 -8 -71 -10 -14 -4 -205 -29 -310 -41 -25
-3 -61 -7 -80 -10 -83 -12 -330 -11 -411 2 -241 37 -382 163 -492 440 -31 77
-114 375 -132 469 -3 17 -7 44 -10 60 -10 51 -96 437 -110 490 -7 28 -20 71
-28 96 l-14 46 46 -14 c25 -8 98 -27 161 -43z m4170 15 c65 -8 215 -64 385
-145 138 -65 346 -153 363 -153 6 0 12 -3 12 -7 0 -10 -322 -318 -405 -387
-87 -72 -164 -122 -235 -153 -44 -19 -73 -24 -140 -25 -75 0 -93 4 -150 31
-78 38 -203 126 -302 214 -124 111 -161 144 -178 160 -18 16 -123 108 -180
158 l-35 31 29 11 c17 6 59 24 94 40 35 17 65 30 67 30 1 0 52 23 111 51 298
140 398 166 564 144z m1876 -378 c12 -3 57 -8 100 -12 43 -3 86 -8 94 -10 13
-3 194 -18 228 -18 19 0 15 -15 -22 -76 -19 -31 -80 -139 -136 -241 -185 -337
-325 -520 -452 -593 -168 -97 -383 -59 -810 141 -59 28 -147 70 -197 93 -50
23 -91 45 -91 48 0 3 20 21 43 38 43 33 86 73 319 295 238 226 331 291 471
328 61 16 99 19 252 15 99 -2 189 -6 201 -8z m-3344 -52 c124 -26 246 -99 424
-250 59 -50 316 -277 362 -320 11 -10 1 -17 -50 -38 -35 -14 -106 -45 -158
-70 -82 -39 -202 -93 -345 -157 -58 -26 -203 -77 -255 -91 -74 -18 -82 -20
-155 -23 -82 -4 -161 14 -225 51 -74 43 -191 169 -273 293 -69 105 -311 530
-305 535 2 1 41 5 88 8 80 6 295 31 350 42 26 5 51 8 155 20 33 4 61 8 62 9
11 10 268 2 325 -9z m7409 -836 c-28 -110 -63 -266 -76 -339 -3 -19 -12 -66
-20 -105 -8 -38 -17 -88 -21 -110 -3 -22 -14 -85 -24 -140 -11 -55 -22 -116
-25 -135 -3 -19 -10 -57 -15 -85 -6 -27 -12 -61 -15 -75 -39 -207 -101 -434
-161 -582 -129 -323 -315 -498 -609 -572 -135 -34 -217 -41 -450 -40 -175 0
-236 3 -405 20 -19 1 -71 6 -115 9 -44 4 -87 8 -95 10 -8 2 -48 7 -89 10 -41
4 -84 9 -95 11 -12 2 -52 6 -91 10 -38 3 -90 7 -115 10 -135 13 -264 19 -427
19 -101 0 -183 3 -183 6 0 3 10 17 21 30 122 138 298 415 479 754 122 227 276
478 362 587 190 242 361 343 751 442 129 33 392 90 472 101 22 4 48 8 57 11
18 5 25 7 138 28 269 52 540 132 705 210 39 18 71 32 73 31 1 -1 -11 -54 -27
-116z m-11742 -18 c173 -53 302 -83 631 -147 102 -19 192 -37 200 -39 8 -2 49
-10 91 -19 113 -23 294 -71 384 -102 388 -131 528 -286 947 -1044 146 -263
248 -431 331 -544 69 -93 162 -203 195 -229 31 -26 28 -32 -16 -33 -78 -3
-258 -14 -282 -18 -14 -3 -54 -8 -90 -11 -92 -9 -152 -17 -240 -30 -19 -2 -55
-7 -80 -10 -25 -4 -56 -8 -70 -10 -14 -2 -45 -7 -70 -10 -25 -3 -56 -8 -70
-10 -14 -2 -47 -6 -75 -10 -27 -3 -61 -8 -75 -10 -14 -2 -52 -6 -85 -10 -33
-3 -82 -8 -110 -11 -27 -3 -68 -7 -90 -9 -48 -5 -370 -6 -405 -1 -14 2 -46 7
-70 10 -172 23 -293 74 -410 169 -94 78 -120 106 -175 187 -115 173 -211 422
-280 725 -49 216 -70 312 -106 485 -23 107 -45 213 -49 235 -23 105 -93 362
-128 466 l-39 116 70 -28 c38 -16 113 -42 166 -58z m5836 -24 c182 -43 303
-90 660 -257 203 -95 378 -164 483 -190 23 -6 42 -15 42 -20 0 -6 -3 -10 -7
-10 -10 0 -61 -47 -298 -275 -302 -289 -388 -364 -524 -454 -263 -173 -453
-182 -711 -31 -58 34 -187 124 -200 139 -3 3 -21 18 -40 32 -33 25 -116 97
-205 178 -200 182 -392 346 -498 425 -40 29 -41 34 -11 41 25 5 202 75 284
113 36 16 88 39 115 52 28 12 86 39 130 60 327 154 516 211 675 205 47 -2 94
-6 105 -8z m2465 -511 c25 -3 95 -10 155 -16 61 -6 126 -13 145 -15 19 -2 67
-7 105 -11 39 -3 78 -8 89 -10 10 -2 84 -6 165 -10 80 -3 147 -7 149 -9 1 -1
-19 -38 -46 -81 -49 -81 -154 -263 -212 -369 -291 -533 -433 -734 -611 -866
-219 -162 -452 -174 -814 -42 -38 14 -86 32 -106 39 -49 18 -274 118 -464 207
-88 41 -205 94 -260 117 -55 24 -104 47 -108 50 -5 4 16 25 45 46 93 67 226
185 447 399 80 77 155 150 167 161 23 22 161 143 205 179 44 37 153 111 209
143 78 43 171 73 275 87 86 12 370 12 465 1z m-4485 -71 c159 -26 311 -97 475
-222 31 -24 195 -157 206 -167 6 -6 42 -38 79 -71 38 -33 81 -71 95 -85 14
-14 60 -54 101 -90 40 -36 76 -67 79 -70 19 -19 144 -123 183 -153 l49 -36
-29 -7 c-40 -10 -299 -123 -591 -258 -488 -225 -681 -287 -902 -290 -119 -2
-292 59 -385 135 -73 60 -195 193 -258 281 -59 84 -246 386 -247 399 0 3 -22
44 -48 90 -44 77 -83 147 -149 269 -14 25 -41 71 -60 103 -19 32 -33 61 -30
63 3 3 50 7 104 9 54 2 121 6 148 9 28 3 77 8 110 11 33 4 71 8 85 10 14 2 48
7 75 10 28 3 61 8 75 11 57 10 322 44 396 50 43 4 80 8 82 9 10 8 292 0 357
-10z m2085 -1201 c186 -41 388 -113 627 -224 47 -22 86 -40 88 -40 2 0 54 -24
117 -54 413 -195 682 -294 903 -331 37 -6 38 -8 21 -21 -67 -49 -256 -215
-376 -330 -199 -192 -252 -243 -380 -364 -392 -371 -649 -541 -901 -594 -88
-19 -262 -11 -359 15 -186 52 -401 184 -680 418 -167 141 -168 142 -204 176
-34 33 -268 243 -386 346 -147 128 -364 295 -447 344 -18 11 -33 23 -33 27 0
4 17 10 38 14 82 15 369 121 530 195 35 16 65 29 66 29 2 0 55 24 117 54 457
216 723 317 912 345 83 12 278 9 347 -5z m3295 -689 c22 -2 72 -6 110 -9 39
-4 86 -8 105 -11 19 -3 62 -7 95 -10 33 -4 76 -8 95 -10 19 -2 62 -7 95 -11
33 -3 73 -8 90 -10 16 -2 70 -6 120 -10 49 -3 101 -8 115 -10 14 -2 117 -6
230 -9 112 -3 206 -7 207 -9 2 -2 -27 -50 -65 -107 -112 -171 -217 -351 -432
-744 -289 -527 -472 -790 -691 -990 -187 -172 -402 -263 -630 -266 -103 -1
-192 8 -319 36 -134 28 -411 121 -560 187 -25 11 -58 26 -75 33 -30 14 -468
214 -605 278 -118 54 -300 134 -360 157 -30 11 -70 28 -89 37 l-34 15 49 32
c118 75 343 258 499 407 39 37 88 83 110 104 22 20 94 89 160 154 588 573 852
739 1220 768 39 3 72 7 74 9 5 5 426 -5 486 -11z m-6125 -89 c336 -37 561
-155 990 -515 69 -58 127 -108 130 -111 3 -3 52 -48 110 -100 58 -52 107 -97
110 -100 13 -14 251 -221 300 -260 30 -25 57 -48 60 -51 3 -4 55 -43 115 -89
61 -45 111 -84 113 -85 1 -1 -26 -12 -60 -24 -84 -30 -251 -95 -313 -121 -102
-44 -280 -124 -398 -179 -598 -281 -855 -384 -1097 -440 -263 -61 -471 -56
-652 15 -232 91 -458 299 -675 624 -76 113 -190 296 -215 345 -8 17 -32 59
-53 95 -37 65 -67 119 -126 228 -132 239 -288 511 -343 594 l-17 26 173 2 c95
0 189 2 208 4 19 2 69 7 110 10 65 6 133 13 280 31 19 2 80 11 135 19 55 8
123 17 150 21 28 3 61 8 75 10 14 2 48 6 75 10 28 3 61 8 75 10 91 12 182 22
295 30 49 3 90 7 92 8 5 5 296 -1 353 -7z"/>
</g>
</svg>
